# xmcd CD database file
# Copyright (C) 1997 Ti Kan
# 
# Track frame offsets:
#     182
#     12610
#     25695
#     37585
#     49335
#     61305
#     74055
#     85922
#     98222
#     111495
#     123955
#     134870
#     145830
#     158437
# 
# Disc length: 2274 seconds
# 
# Revision: 1
# Processed by: cddbd v1.4b41PL1 Copyright (c) Steve Scherf et al.
# Submitted via: DiscPlay 4.0.3
# 
DISCID=c408e00e
DTITLE=Hank Williams - Hank Williams Greatest Hits
DYEAR=1900
DGENRE=
TTITLE0=Cold, Cold Heart
TTITLE1=Jambalaya (On The Bayou)
TTITLE2=You Win Again
TTITLE3=Kaw-liga
TTITLE4=Take These Chains From My Heart
TTITLE5=There'll Be No Tear-Drops Tonight
TTITLE6=Settin' The Woods On Fire
TTITLE7=Your Cheatin' Heart
TTITLE8=Hey, Good Lookin'
TTITLE9=Honky Tonkin'
TTITLE10=I Can't Help It (If I'm Still In Love With You)
TTITLE11=Why Don't You Love Me
TTITLE12=I'm So Lonesome I Could Cry
TTITLE13=Half As Much
EXTD=
EXTT0=
EXTT1=
EXTT2=
EXTT3=
EXTT4=
EXTT5=
EXTT6=
EXTT7=
EXTT8=
EXTT9=
EXTT10=
EXTT11=
EXTT12=
EXTT13=
PLAYORDER=
